<?xml version="1.0" standalone="no"?>
<!DOCTYPE svg PUBLIC "-//W3C//DTD SVG 20010904//EN"
 "http://www.w3.org/TR/2001/REC-SVG-20010904/DTD/svg10.dtd">
<svg version="1.0" xmlns="http://www.w3.org/2000/svg"
 width="508.000000pt" height="119.000000pt" viewBox="0 0 508.000000 119.000000"
 preserveAspectRatio="xMidYMid meet">

<g transform="translate(0.000000,119.000000) scale(0.100000,-0.100000)"
fill="#000000" stroke="none">
<path d="M3695 1151 c-54 -24 -138 -118 -174 -194 -37 -77 -67 -190 -76 -281
l-7 -68 -28 5 c-25 5 -31 0 -62 -46 -45 -68 -116 -108 -192 -110 -52 -1 -106
21 -106 43 0 5 21 12 48 16 144 21 232 96 232 200 0 58 -22 94 -72 120 -44 23
-146 20 -207 -7 -67 -28 -146 -114 -165 -177 -8 -26 -18 -46 -23 -45 -4 1 -20
4 -33 8 -23 5 -28 -1 -58 -58 -35 -68 -122 -164 -122 -134 0 9 14 100 30 202
17 102 30 192 30 200 0 22 -135 22 -144 0 -4 -12 -11 -12 -40 6 -43 25 -136
28 -189 5 -56 -23 -118 -86 -149 -151 -15 -33 -28 -66 -28 -72 0 -9 -7 -10
-26 -3 -39 15 -41 14 -77 -57 -38 -75 -73 -109 -106 -98 -18 5 -21 14 -21 58
0 29 9 106 20 172 28 169 32 155 -49 155 -52 0 -70 -4 -75 -15 -4 -12 -11 -12
-40 6 -48 28 -142 28 -199 0 -61 -30 -124 -99 -152 -167 -14 -32 -28 -58 -32
-57 -5 1 -20 4 -33 8 -23 5 -28 -1 -60 -62 -40 -77 -81 -114 -108 -97 -19 13
-20 46 -7 205 12 143 -18 191 -116 191 -58 -1 -98 -20 -149 -73 l-38 -40 -11
34 c-19 55 -50 78 -110 79 -55 0 -130 -35 -154 -73 -19 -30 -26 -23 -20 21 l6
40 -72 0 c-39 0 -71 -1 -71 -2 0 -15 -40 -232 -43 -234 -2 -2 -18 1 -36 7 -18
6 -34 10 -36 8 -2 -2 -18 -33 -37 -68 -39 -75 -79 -111 -106 -95 -25 16 -26
69 -3 212 30 185 33 172 -44 172 -58 0 -66 -2 -75 -22 -13 -33 -50 -280 -50
-336 0 -164 182 -207 303 -72 22 23 48 61 59 84 11 22 17 30 14 16 -3 -14 -9
-55 -12 -91 l-7 -67 34 -3 c19 -2 50 -2 69 1 35 5 35 6 50 81 27 131 71 225
126 268 32 25 47 26 65 5 11 -13 10 -36 -5 -138 -10 -66 -21 -142 -23 -168
l-5 -47 33 -3 c19 -2 50 -1 70 0 l37 4 15 82 c26 140 117 292 171 284 19 -3
21 -9 20 -63 0 -33 -4 -96 -8 -140 -6 -69 -5 -85 12 -114 37 -67 126 -89 207
-52 47 22 94 69 128 129 l24 43 6 -39 c8 -44 40 -96 79 -125 60 -45 190 -28
257 34 18 16 34 29 36 27 1 -2 8 -13 14 -26 19 -36 70 -62 121 -62 83 1 151
47 203 139 l25 44 11 -40 c15 -55 49 -103 91 -124 62 -33 170 -19 223 29 18
16 19 15 15 -13 -3 -29 -8 -32 -118 -70 -139 -48 -175 -72 -191 -125 -18 -60
4 -109 61 -138 133 -67 295 26 364 208 13 36 26 50 61 69 66 35 124 89 166
154 l39 59 10 -26 c5 -15 10 -31 10 -35 0 -4 16 -26 35 -49 118 -137 374 -95
487 80 l33 50 12 -41 c18 -63 51 -114 90 -141 30 -21 48 -25 107 -25 109 0
182 48 247 160 l29 50 0 -60 c0 -73 25 -120 75 -141 100 -41 206 10 280 136
15 25 24 37 21 27 -3 -10 -9 -49 -12 -87 l-7 -69 34 -3 c19 -2 50 -1 70 0 l36
4 16 93 c20 112 44 171 92 224 59 65 136 75 164 22 30 -56 0 -177 -55 -220
-25 -20 -37 -22 -82 -18 -50 5 -53 4 -67 -23 -28 -54 -21 -68 42 -86 71 -21
216 -15 286 12 71 27 138 83 175 144 41 70 42 95 1 109 -44 15 -45 15 -60 -21
-24 -59 -109 -138 -148 -138 -6 0 5 20 24 45 74 98 65 256 -20 321 -66 50
-177 47 -252 -6 -52 -36 -51 -45 -18 158 36 216 38 202 -40 202 -58 0 -66 -2
-75 -22 -5 -13 -25 -131 -45 -263 -44 -292 -44 -288 -62 -281 -56 22 -59 21
-94 -50 -39 -77 -80 -115 -107 -98 -25 16 -26 69 -3 215 30 183 34 169 -48
169 -79 0 -70 12 -91 -125 -19 -123 -15 -115 -57 -102 -32 10 -38 9 -47 -7
-47 -80 -76 -113 -118 -134 -42 -21 -50 -22 -75 -10 -51 24 -103 172 -65 185
121 38 233 137 273 240 25 66 36 175 20 215 -24 62 -117 85 -196 49z m82 -128
c18 -47 -52 -185 -120 -234 -68 -49 -72 -37 -27 79 51 131 126 210 147 155z
m-2007 -308 c37 -19 38 -42 9 -122 -26 -69 -82 -131 -126 -139 -25 -5 -37 -1
-57 19 -21 21 -26 36 -26 77 0 125 107 213 200 165z m742 -1 c28 -15 30 -18
24 -57 -9 -58 -51 -141 -87 -172 -44 -36 -75 -42 -107 -18 -23 17 -27 28 -30
79 -2 46 3 68 21 99 43 75 114 103 179 69z m686 -17 c4 -35 -19 -63 -73 -88
-38 -17 -95 -26 -95 -14 0 19 44 87 71 109 44 37 93 33 97 -7z m-768 -507
c-39 -55 -100 -80 -113 -46 -7 18 6 29 64 55 63 29 75 27 49 -9z"/>
<path d="M160 1063 c-8 -3 -25 -15 -37 -26 -28 -25 -32 -87 -7 -108 26 -21 83
-14 112 14 58 59 8 148 -68 120z"/>
<path d="M4060 1063 c-36 -14 -60 -47 -60 -84 0 -45 20 -63 67 -62 93 3 121
129 33 147 -14 3 -32 2 -40 -1z"/>
</g>
</svg>
